<svg xmlns="http://www.w3.org/2000/svg" viewBox="0 0 64 64"><path d="M32.2 0C14.5-.1.1 14.2 0 31.8S14.2 63.9 31.8 64 63.9 49.8 64 32.2 49.8.1 32.2 0zm-5.5 47.2c0 1.7-1.4 3.1-3.1 3.1-1.7 0-3.1-1.4-3.1-3.1V27c0-1.7 1.4-3.1 3.1-3.1 1.7 0 3.1 1.4 3.1 3.1v20.2zm-2.9-26.8c-1.7 0-3.1-1.4-3.1-3.1s1.4-3.1 3.1-3.1 3.1 1.4 3.1 3.1-1.3 3.1-3.1 3.1zm19.6 24.9c.8 1.5.2 3.4-1.3 4.2-.5.2-1 .4-1.5.4-1.1 0-2.2-.6-2.8-1.7l-6-11.3c0-.1-.1-.2-.1-.3-.3-.5-.5-1.1-.5-1.7 0-1.7 1.4-3.1 3.1-3.1 3.2 0 5.7-2.6 5.7-5.7s-2.6-5.7-5.7-5.7c-1.7 0-3.1-1.4-3.1-3.1s1.4-3.1 3.1-3.1c6.6 0 12 5.4 12 12 0 5-3 9.2-7.3 11l4.4 8.1z" fill="#b5a4a3"/></svg>